<?xml version="1.0" encoding="UTF-8" standalone="no"?>
<svg
   width="16"
   height="16"
   viewBox="0 0 16 16"
   fill="none"
   version="1.1"
   id="svg2340"
   xmlns="http://www.w3.org/2000/svg"
   xmlns:svg="http://www.w3.org/2000/svg">
  <defs
     id="defs2344" />
  <path
     fill-rule="evenodd"
     clip-rule="evenodd"
     d="m 14.989474,14.568421 v -0.408 c 0,-0.193179 -0.198148,-0.509894 -0.370695,-0.594021 L 9.852211,11.241264 C 8.566653,10.614232 8.248926,9.0971785 9.169937,8.0053895 L 9.474442,7.6444635 C 9.938695,7.0941472 10.357895,5.9489599 10.357895,5.2296336 V 3.7896504 C 10.357895,2.4883451 9.301558,1.4315788 8,1.4315788 c -1.2999579,0 -2.3578947,1.0570105 -2.3578947,2.3575411 v 1.4397558 c 0,0.7211536 0.4174736,1.8620715 0.8834526,2.4143238 l 0.304421,0.360842 C 7.752926,9.0980205 7.4317474,10.613642 6.1479747,11.240085 l -4.7666105,2.326063 c -0.1712421,0.08354 -0.3708379,0.403283 -0.3708379,0.594272 v 0.408 z M 0,14.736842 V 14.160421 C 0,13.583495 0.4194947,12.911074 0.9381895,12.657937 L 5.7048,10.331874 C 6.3961263,9.9945265 6.5568842,9.2474105 6.0576421,8.6556635 L 5.7531874,8.2948205 C 5.1337432,7.5606735 4.6315789,6.1890525 4.6315789,5.2288757 V 3.7891199 C 4.6315789,1.9289851 6.1434611,0.4210525 8,0.4210525 c 1.860295,0 3.368421,1.5098779 3.368421,3.3685979 v 1.4399832 c 0,0.9592505 -0.504505,2.3349139 -1.1216,3.0664509 L 9.9424,8.6569265 c -0.496505,0.588547 -0.341389,1.337515 0.352758,1.6761265 l 4.766653,2.325137 C 15.579958,12.910906 16,13.579116 16,14.160421 v 0.576421 c 0,0.465095 -0.377011,0.842106 -0.842105,0.842106 H 0.8421053 C 0.3770274,15.578948 0,15.201937 0,14.736842 Z"
     fill="#000000"
     fill-opacity="0.9"
     id="path2338"
     style="stroke-width:0.842105" />
</svg>
